<svg
  width="130"
  height="59"
  viewBox="0 0 130 59"
  xmlns="http://www.w3.org/2000/svg"
  xmlns:xlink="http://www.w3.org/1999/xlink"
>
  <title>langAI-marca</title>
  <defs>
    <path id="a" d="M0 58.476h130V0H0z" />
  </defs>
  <g fill="none" fill-rule="evenodd">
    <path
      d="M25.526 19.05a2.965 2.965 0 1 1 0 5.93 2.965 2.965 0 0 1 0-5.93zM25.526 12.312a2.49 2.49 0 1 1 0 4.982 2.49 2.49 0 0 1 0-4.982M13.095 19.571a2.49 2.49 0 1 1 0 4.982 2.49 2.49 0 0 1 0-4.982M13.095 33.947a2.49 2.49 0 1 1 0 4.982 2.49 2.49 0 0 1 0-4.982M25.526 41.206a2.49 2.49 0 1 1 0 4.982 2.49 2.49 0 0 1 0-4.982M37.98 33.947a2.49 2.49 0 1 1 0 4.982 2.49 2.49 0 0 1 0-4.982M37.98 19.571a2.49 2.49 0 1 1 0 4.982 2.49 2.49 0 0 1 0-4.982M38.502 12.668a1.969 1.969 0 1 1 0 3.938 1.969 1.969 0 0 1 0-3.938M38.502 41.87a1.969 1.969 0 1 1 0 3.938 1.969 1.969 0 0 1 0-3.938M12.573 12.668a1.969 1.969 0 1 1 0 3.938 1.969 1.969 0 0 1 0-3.938M12.597 41.87a1.969 1.969 0 1 1 0 3.938 1.969 1.969 0 0 1 0-3.938M44.599 23.343a1.969 1.969 0 1 1 0 3.938 1.969 1.969 0 0 1 0-3.938M6.453 23.343a1.969 1.969 0 1 1 0 3.938 1.969 1.969 0 0 1 0-3.938M6.453 31.195a1.969 1.969 0 1 1 0 3.938 1.969 1.969 0 0 1 0-3.938M44.622 31.195a1.969 1.969 0 1 1 0 3.938 1.969 1.969 0 0 1 0-3.938M31.717 8.706a1.969 1.969 0 1 1 0 3.938 1.969 1.969 0 0 1 0-3.938M31.717 45.832a1.969 1.969 0 1 1 0 3.938 1.969 1.969 0 0 1 0-3.938M19.358 8.706a1.969 1.969 0 1 1 0 3.938 1.969 1.969 0 0 1 0-3.938M19.358 45.832a1.969 1.969 0 1 1 0 3.938 1.969 1.969 0 0 1 0-3.938M25.526 55.535a1.47 1.47 0 1 1 0 2.941 1.47 1.47 0 0 1 0-2.941M31.266 52.38a1.47 1.47 0 1 1 0 2.941 1.47 1.47 0 0 1 0-2.941M19.832 52.38a1.47 1.47 0 1 1 0 2.941 1.47 1.47 0 0 1 0-2.941M19.832 3.179a1.47 1.47 0 1 1 0 2.942 1.47 1.47 0 0 1 0-2.942M31.243 3.155a1.47 1.47 0 1 1 0 2.942 1.47 1.47 0 0 1 0-2.942M25.55 0a1.47 1.47 0 1 1 0 2.942 1.47 1.47 0 0 1 0-2.942M43.934 44.978a1.47 1.47 0 1 1 0 2.942 1.47 1.47 0 0 1 0-2.942M7.117 44.978a1.47 1.47 0 1 1 0 2.942 1.47 1.47 0 0 1 0-2.942M7.117 10.58a1.47 1.47 0 1 1 0 2.942 1.47 1.47 0 0 1 0-2.942M43.934 10.557a1.47 1.47 0 1 1 0 2.941 1.47 1.47 0 0 1 0-2.941M49.51 41.61a1.47 1.47 0 1 1-.001 2.941 1.47 1.47 0 0 1 0-2.942M49.557 35.133a1.47 1.47 0 1 1 0 2.942 1.47 1.47 0 0 1 0-2.942M49.58 20.449a1.47 1.47 0 1 1 0 2.942 1.47 1.47 0 0 1 0-2.942M49.51 13.949a1.47 1.47 0 1 1-.001 2.942 1.47 1.47 0 0 1 0-2.942M1.59 41.61a1.47 1.47 0 1 1 0 2.941 1.47 1.47 0 0 1 0-2.942M1.47 35.086a1.47 1.47 0 1 1 0 2.941 1.47 1.47 0 0 1 0-2.941M1.47 20.449a1.47 1.47 0 1 1 0 2.942 1.47 1.47 0 0 1 0-2.942M1.59 13.949a1.47 1.47 0 1 1 0 2.942 1.47 1.47 0 0 1 0-2.942M25.526 33.52a2.965 2.965 0 1 1 0 5.93 2.965 2.965 0 0 1 0-5.93M31.812 29.89a2.965 2.965 0 1 1 0 5.93 2.965 2.965 0 0 1 0-5.93M31.812 22.631a2.965 2.965 0 1 1 0 5.93 2.965 2.965 0 0 1 0-5.93M19.24 29.89a2.965 2.965 0 1 1 0 5.93 2.965 2.965 0 0 1 0-5.93M19.24 22.631a2.965 2.965 0 1 1 0 5.93 2.965 2.965 0 0 1 0-5.93M64.74 32.76V20.9h2.703v11.695c0 .664.19 1.115.546 1.328.261.166.593.261.973.238.118 0 .237 0 .38-.024h.26v2.135c-.26.047-.474.095-.664.119-.19.023-.45.023-.735.023-1.115 0-1.946-.284-2.562-.878-.617-.593-.902-1.494-.902-2.775M73.682 32.974c0 .546.19.95.546 1.187.356.26.83.38 1.376.38.237 0 .498-.048.76-.12.284-.094.521-.213.758-.403.237-.19.404-.403.57-.64.166-.237.213-.546.213-.854v-.807a4.95 4.95 0 0 0-.973-.213 5.576 5.576 0 0 0-1.067-.095c-.261 0-.522.023-.783.095-.26.07-.498.166-.688.284-.213.119-.38.285-.498.498-.142.167-.214.404-.214.688m-2.704.238v-.166c0-.688.142-1.258.427-1.708.285-.451.664-.83 1.115-1.115.45-.285.973-.475 1.566-.593a8.792 8.792 0 0 1 1.732-.19c.308 0 .64.024 1.02.07.355.048.711.096 1.067.19v-.403c0-.332-.024-.616-.047-.901-.048-.285-.119-.522-.261-.735a1.37 1.37 0 0 0-.593-.499c-.261-.118-.617-.166-1.044-.166-.45 0-.878.119-1.281.332-.403.214-.617.641-.64 1.234H71.38v-.26c.048-.57.19-1.045.475-1.472.26-.427.593-.759 1.02-1.044.403-.284.878-.474 1.4-.616.521-.143 1.067-.19 1.636-.19.76 0 1.447.095 2.088.308.64.19 1.186.546 1.613.997.309.308.546.735.712 1.28.166.546.26 1.163.26 1.875v6.927h-2.063l-.332-1.21h-.048a3.45 3.45 0 0 1-1.376 1.162c-.569.261-1.186.404-1.85.404a4.64 4.64 0 0 1-1.518-.261 3.85 3.85 0 0 1-1.257-.712 3.586 3.586 0 0 1-.855-1.115 3.475 3.475 0 0 1-.308-1.423M83.456 36.343V25.312h2.064l.427 1.352h.048c.427-.593.925-1.044 1.47-1.28.57-.262 1.163-.38 1.827-.38.593 0 1.139.095 1.637.308.498.19.925.474 1.28.83.357.356.641.76.831 1.234.19.474.285.996.285 1.59v7.425h-2.633v-6.643c0-.854-.214-1.47-.617-1.874-.403-.38-.925-.593-1.59-.593-.711 0-1.28.214-1.708.617-.427.403-.616 1.02-.616 1.874v6.619h-2.705v-.048zM98.828 28.752c0 .593.19 1.067.57 1.4.38.332.901.498 1.542.498.64 0 1.138-.166 1.518-.499.38-.332.57-.806.57-1.4 0-.592-.19-1.043-.57-1.375-.38-.332-.878-.475-1.542-.475s-1.186.167-1.542.499c-.356.308-.546.782-.546 1.352zm-.687 8.54c0 .474.19.807.593 1.02.403.214 1.138.308 2.206.308.925 0 1.637-.142 2.135-.403.498-.26.759-.617.759-.996 0-.38-.142-.64-.427-.783-.285-.142-.688-.214-1.186-.214h-3.132c-.26.095-.498.261-.664.475-.19.19-.284.403-.284.593zm-2.657.237c0-.142.023-.308.094-.522.072-.213.143-.427.261-.616.119-.19.261-.404.427-.57.19-.166.38-.308.617-.403a3.63 3.63 0 0 1-.593-.712 1.947 1.947 0 0 1-.26-.996c0-.38.094-.76.308-1.115.19-.38.545-.712 1.02-1.02-.38-.285-.665-.664-.878-1.091-.214-.427-.308-.926-.308-1.495v-.237c0-.617.118-1.163.38-1.613.26-.475.592-.854 1.02-1.163a4.73 4.73 0 0 1 1.517-.711c.57-.166 1.187-.238 1.85-.238.475 0 .926.048 1.377.143l1.731-2.017h2.444v.309L104.308 26c.427.308.76.688.997 1.139.237.45.356.972.356 1.59v.26c0 .617-.119 1.162-.38 1.613-.26.45-.593.83-1.044 1.139-.45.308-.949.545-1.542.688a6.879 6.879 0 0 1-1.874.237c-.735 0-1.376-.095-1.945-.285a.925.925 0 0 0-.38.427 1.267 1.267 0 0 0-.118.475c0 .308.095.545.308.688.214.142.498.213.878.213h2.989c.498 0 .973.048 1.447.166.474.119.901.285 1.257.522.356.237.665.522.878.902.214.356.332.783.332 1.28v.167c0 .64-.19 1.186-.545 1.637a3.65 3.65 0 0 1-1.376 1.067c-.57.261-1.163.475-1.85.593a11.02 11.02 0 0 1-1.946.19c-.712 0-1.4-.047-2.04-.142a6.002 6.002 0 0 1-1.708-.498c-.498-.238-.878-.546-1.139-.926-.26-.38-.403-.83-.403-1.4v-.213h.024zM117.308 32.974c0 .546.19.95.546 1.187.356.26.83.38 1.376.38.237 0 .498-.048.76-.12.284-.094.52-.213.758-.403.237-.19.403-.403.57-.64.166-.237.213-.546.213-.854v-.807a4.95 4.95 0 0 0-.973-.213 5.576 5.576 0 0 0-1.067-.095c-.261 0-.522.023-.783.095-.26.07-.498.166-.688.284-.213.119-.38.285-.498.498-.166.167-.214.404-.214.688m-2.704.238v-.166c0-.688.142-1.258.427-1.708.285-.451.664-.83 1.115-1.115.45-.285.973-.475 1.566-.593a8.792 8.792 0 0 1 1.731-.19c.309 0 .64.024 1.02.07.356.048.712.096 1.068.19v-.403c0-.332-.024-.616-.047-.901-.048-.285-.119-.522-.261-.735a1.37 1.37 0 0 0-.593-.499c-.261-.118-.617-.166-1.044-.166-.451 0-.878.119-1.281.332-.404.214-.617.641-.64 1.234h-2.658v-.26c.048-.57.19-1.045.475-1.472.26-.427.593-.759 1.02-1.044.403-.284.878-.474 1.4-.616.521-.143 1.067-.19 1.636-.19.76 0 1.447.095 2.088.308.64.19 1.186.546 1.613.997.308.308.546.735.712 1.28.166.546.26 1.163.26 1.875v6.927h-2.063l-.332-1.21h-.048a3.45 3.45 0 0 1-1.376 1.162c-.569.261-1.186.404-1.85.404a4.64 4.64 0 0 1-1.518-.261 3.85 3.85 0 0 1-1.258-.712 3.586 3.586 0 0 1-.854-1.115 3.475 3.475 0 0 1-.308-1.423"
      fill="#4957B8"
    />
    <mask id="b" fill="#fff">
      <use xlink:href="#a" />
    </mask>
    <path
      fill="#4957B8"
      mask="url(#b)"
      d="M126.964 36.343h2.704V25.312h-2.704zM128.292 20.26a1.708 1.708 0 1 1 0 3.415 1.708 1.708 0 0 1 0-3.416M110.358 32.974a1.708 1.708 0 1 1 0 3.417 1.708 1.708 0 0 1 0-3.417"
    />
  </g>
</svg>
